{"title":"The Chilling (1989) Director's Cut DVDRip - RadioResearch","uid":8471914,"size":879198783,"categoryP":"video","categoryS":"movies","magnet":"?xt=urn:btih:7371125f25259be0a07594ba777dd2f21a75266d&amp;dn=The+Chilling+%281989%29+Director%27s+Cut+DVDRip+-+RadioResearch&amp;tr=udp%3A%2F%2Ftracker.openbittorrent.com%3A80&amp;tr=udp%3A%2F%2Fopen.demonii.com%3A1337&amp;tr=udp%3A%2F%2Ftracker.coppersurfer.tk%3A6969&amp;tr=udp%3A%2F%2Fexodus.desync.com%3A6969","seeders":0,"leechers":0,"uploader":"RadioResearch","files":3,"time":1368505641,"description":"*******************************************************************************\n           The Chilling (1989) Director's Cut DVDRip - RadioResearch\n*******************************************************************************\n\n-------------------------------------------------------------------------------\n                              General Information\n-------------------------------------------------------------------------------\nType.................: Movie\n\n\n\nVideo Format.........: AVI\nVideo Bitrate........: 1281\nResolution...........: 632 x 480\nColor................: 8 bit\nFPS..................: 23.976\nSource...............: DVD 4x3\nOriginal Format......: NTSC\nGenre................: Horror\nIMDb Rating..........: 3.3\nMovie Information....: http://www.imdb.com/title/tt0097059/\n\n-------------------------------------------------------------------------------\n                               Post Information\n-------------------------------------------------------------------------------\nPosted by............: RadioResearch\nPosted on............: 5/13/2013\n\n-------------------------------------------------------------------------------\n                                 Release Notes\n-------------------------------------------------------------------------------\nSEEDBOX SUPPORTED!!\n\nUniversal Cryogenics is doing a booming business in freezing the bodies of the \nrecently dead in the hopes of defrosting them later when science has discovered \na way to cure what ails them. Things are going well until the storage facility \nloses its power during a storm, threatening their frozen clients. To make \nmatters worse, a lightning strike causes the bodies to revive as homicidal \nzombies. What has the cryogenic lab been doing to its customers to cause this \nkind of change, and can they stop?\n\nThis is a Code Red edition, so yo know the quality is there.  It is also out-\nof-print, so...enjoy!\n\nRadioResearch\n\nGeneral\nComplete name                            : G:The Chilling (1989) Director's Cut \nDVDRip - RadioResearchThe Chilling - {RadioResearch}.avi\nFormat                                   : AVI\nFormat/Info                              : Audio Video Interleave\nFile size                                : 838 MiB\nDuration                                 : 1h 31mn\nOverall bit rate                         : 1 281 Kbps\nMovie name                               : THE_CHILLING.Title2.DVDRip\nWriting application                      : Lavf53.32.100\nOriginal source form/Name                : THE_CHILLING\n\nVideo\nID                                       : 0\nFormat                                   : MPEG-4 Visual\nFormat profile                           : Advanced Simple@L5\nFormat settings, BVOP                    : 2\nFormat settings, QPel                    : No\nFormat settings, GMC                     : No warppoints\nFormat settings, Matrix                  : Default (H.263)\nMuxing mode                              : Packed bitstream\nCodec ID                                 : XVID\nCodec ID/Hint                            : XviD\nDuration                                 : 1h 31mn\nBit rate                                 : 1 079 Kbps\nWidth                                    : 632 pixels\nHeight                                   : 480 pixels\nDisplay aspect ratio                     : 4:3\nFrame rate                               : 23.976 fps\nColor space                              : YUV\nChroma subsampling                       : 4:2:0\nBit depth                                : 8 bits\nScan type                                : Progressive\nCompression mode                         : Lossy\nBits/(Pixel*Frame)                       : 0.148\nStream size                              : 706 MiB (84%)\nWriting library                          : XviD 64\n\nAudio\nID                                       : 1\nFormat                                   : AC-3\nFormat/Info                              : Audio Coding 3\nMode extension                           : CM (complete main)\nFormat settings, Endianness              : Big\nCodec ID                                 : 2000\nDuration                                 : 1h 31mn\nBit rate mode                            : Constant\nBit rate                                 : 192 Kbps\nChannel(s)                               : 2 channels\nChannel positions                        : Front: L R\nSampling rate                            : 48.0 KHz\nBit depth                                : 16 bits\nCompression mode                         : Lossy\nStream size                              : 126 MiB (15%)\nAlignment                                : Aligned on interleaves\nInterleave, duration                     : 32 ms (0.77 video frame)\n\nAVI FILE MD5 HASH  1402b239faec7a0d10da5387801452a8\n\n\n\n-------------------------------------------------------------------------------\nGenerated with Cool NFO Creator - http://fly.to/coolbeans\n-------------------------------------------------------------------------------\n","torrent":{"xt":"urn:btih:7371125f25259be0a07594ba777dd2f21a75266d","amp;dn":"The+Chilling+%281989%29+Director%27s+Cut+DVDRip+-+RadioResearch","amp;tr":["udp%3A%2F%2Ftracker.openbittorrent.com%3A80","udp%3A%2F%2Fopen.demonii.com%3A1337","udp%3A%2F%2Ftracker.coppersurfer.tk%3A6969","udp%3A%2F%2Fexodus.desync.com%3A6969"],"infoHash":"7371125f25259be0a07594ba777dd2f21a75266d","infoHashBuffer":{"type":"Buffer","data":[115,113,18,95,37,37,155,224,160,117,148,186,119,125,210,242,26,117,38,109]},"announce":[],"urlList":[]}}